<svg xmlns="http://www.w3.org/2000/svg" width="900" height="675" viewBox="0 0 900 675">
  <defs>
    <radialGradient id="bg5" cx="50%" cy="40%" r="60%">
      <stop offset="0%" stop-color="#F7ECE0"/>
      <stop offset="100%" stop-color="#E8D5C0"/>
    </radialGradient>
  </defs>
  <rect width="900" height="675" fill="url(#bg5)"/>
  <!-- Necklace -->
  <g transform="translate(450,220)">
    <path d="M-140,-120 Q-160,10 -80,100 Q0,150 80,100 Q160,10 140,-120"
          fill="none" stroke="#8B7355" stroke-width="1" opacity="0.15"/>
    <!-- Left beads -->
    <circle cx="-136" cy="-95" r="11" fill="#046A38"/>
    <circle cx="-140" cy="-65" r="12" fill="#E3C4A8" stroke="#d4b08c" stroke-width="1"/>
    <circle cx="-142" cy="-34" r="11" fill="#C9A227"/>
    <circle cx="-140" cy="-4" r="12" fill="#7F1D1D"/>
    <circle cx="-132" cy="26" r="11" fill="#046A38"/>
    <circle cx="-120" cy="52" r="12" fill="#E3C4A8" stroke="#d4b08c" stroke-width="1"/>
    <circle cx="-102" cy="74" r="11" fill="#C9A227"/>
    <circle cx="-78" cy="92" r="12" fill="#046A38"/>
    <circle cx="-50" cy="108" r="13" fill="#7F1D1D"/>
    <circle cx="-18" cy="118" r="14" fill="#C9A227"/>
    <!-- Center -->
    <circle cx="0" cy="150" r="18" fill="#046A38"/>
    <circle cx="0" cy="150" r="10" fill="#C9A227" opacity="0.8"/>
    <!-- Right beads -->
    <circle cx="18" cy="118" r="14" fill="#E3C4A8" stroke="#d4b08c" stroke-width="1"/>
    <circle cx="50" cy="108" r="13" fill="#046A38"/>
    <circle cx="78" cy="92" r="12" fill="#7F1D1D"/>
    <circle cx="102" cy="74" r="11" fill="#C9A227"/>
    <circle cx="120" cy="52" r="12" fill="#046A38"/>
    <circle cx="132" cy="26" r="11" fill="#E3C4A8" stroke="#d4b08c" stroke-width="1"/>
    <circle cx="140" cy="-4" r="12" fill="#C9A227"/>
    <circle cx="142" cy="-34" r="11" fill="#7F1D1D"/>
    <circle cx="140" cy="-65" r="12" fill="#046A38"/>
    <circle cx="136" cy="-95" r="11" fill="#E3C4A8" stroke="#d4b08c" stroke-width="1"/>
  </g>
  <!-- Matching bracelet below -->
  <g transform="translate(450,500)">
    <ellipse cx="0" cy="0" rx="120" ry="50" fill="none" stroke="#8B7355" stroke-width="0.8" opacity="0.1"/>
    <circle cx="-118" cy="6" r="10" fill="#046A38" opacity="0.8"/>
    <circle cx="-110" cy="-24" r="11" fill="#E3C4A8" opacity="0.8" stroke="#d4b08c" stroke-width="0.5"/>
    <circle cx="-94" cy="-42" r="10" fill="#C9A227" opacity="0.8"/>
    <circle cx="-72" cy="-48" r="11" fill="#7F1D1D" opacity="0.8"/>
    <circle cx="-46" cy="-50" r="10" fill="#046A38" opacity="0.8"/>
    <circle cx="-18" cy="-50" r="11" fill="#E3C4A8" opacity="0.8" stroke="#d4b08c" stroke-width="0.5"/>
    <circle cx="10" cy="-50" r="10" fill="#C9A227" opacity="0.8"/>
    <circle cx="38" cy="-50" r="11" fill="#046A38" opacity="0.8"/>
    <circle cx="64" cy="-48" r="10" fill="#7F1D1D" opacity="0.8"/>
    <circle cx="88" cy="-42" r="11" fill="#E3C4A8" opacity="0.8" stroke="#d4b08c" stroke-width="0.5"/>
    <circle cx="106" cy="-28" r="10" fill="#C9A227" opacity="0.8"/>
    <circle cx="118" cy="-6" r="11" fill="#046A38" opacity="0.8"/>
  </g>
  <!-- "SET" label -->
  <rect x="380" y="415" width="140" height="28" rx="14" fill="#046A38" opacity="0.08"/>
  <text x="450" y="434" text-anchor="middle" font-family="Georgia, serif" font-size="11" fill="#046A38" opacity="0.35" letter-spacing="0.15em">MATCHING SET</text>
  <text x="450" y="625" text-anchor="middle" font-family="Georgia, serif" font-size="13" fill="#046A38" opacity="0.25" letter-spacing="0.15em">NECKLACE + BRACELET</text>
</svg>